<svg width="24" height="24" xmlns="http://www.w3.org/2000/svg">
 <title/>

 <g>
  <title>background</title>
  <rect fill="none" id="canvas_background" height="402" width="582" y="-1" x="-1"/>
 </g>
 <g>
  <title>Layer 1</title>
  <path id="svg_1" d="m20,14a5,5 0 0 0 -1,-3l0,0l0,-8l-2,0l0,6.42a4.94,4.94 0 0 0 -1,-0.32l0,-6.1l-2,0l0,6.1a4.94,4.94 0 0 0 -1,0.32l0,-6.42l-2,0l0,8l0,0a5,5 0 0 0 -1,3a5,5 0 0 0 7.75,4.17l3.54,3.54l1.41,-1.41l-3.54,-3.54a5,5 0 0 0 0.84,-2.76zm-5,3a3,3 0 1 1 3,-3a3,3 0 0 1 -3,3z"/>
  <rect id="svg_2" y="3" x="2" width="2" height="11"/>
  <rect id="svg_3" y="3" x="5" width="2" height="9"/>
  <rect id="svg_4" y="3" x="8" width="2" height="9"/>
 </g>
</svg>